<svg width="429" height="257" viewBox="0 0 429 257" fill="none" xmlns="http://www.w3.org/2000/svg">
<path d="M324.71 207.22C381.932 207.22 428.32 160.832 428.32 103.61C428.32 46.3878 381.932 0 324.71 0C267.488 0 221.1 46.3878 221.1 103.61C221.1 160.832 267.488 207.22 324.71 207.22Z" fill="#D2EAEA"/>
<path d="M280.99 174.31C284.061 174.31 286.55 171.946 286.55 169.03C286.55 166.114 284.061 163.75 280.99 163.75C277.919 163.75 275.43 166.114 275.43 169.03C275.43 171.946 277.919 174.31 280.99 174.31Z" fill="#265F7B"/>
<path d="M322.12 180.87C325.34 180.87 327.95 178.39 327.95 175.33C327.95 172.27 325.34 169.79 322.12 169.79C318.9 169.79 316.29 172.27 316.29 175.33C316.29 178.39 318.9 180.87 322.12 180.87Z" fill="#265F7B"/>
<path d="M342.5 176.28C345.571 176.28 348.06 173.916 348.06 171C348.06 168.084 345.571 165.72 342.5 165.72C339.429 165.72 336.94 168.084 336.94 171C336.94 173.916 339.429 176.28 342.5 176.28Z" fill="#265F7B"/>
<path d="M329.34 172.41L342.21 168.08C344.47 167.361 346.447 165.95 347.861 164.046C349.275 162.142 350.055 159.841 350.09 157.47V78.85C350.016 75.6429 348.743 72.5799 346.522 70.2657C344.3 67.9515 341.291 66.5544 338.09 66.35L301.65 62.09C297.25 61.72 291.83 60.75 285.55 64.99L274.83 71.48" fill="#265F7B"/>
<path d="M329.7 172.41L276.05 164.54C274.812 164.522 273.632 164.013 272.768 163.127C271.904 162.241 271.427 161.048 271.44 159.81V79.44C271.44 72.05 275.33 69.8 282.54 69.8L321.21 73.72C324.726 73.7753 328.078 75.2199 330.532 77.7381C332.987 80.2563 334.345 83.6436 334.31 87.16V167.72C334.315 168.952 333.834 170.136 332.971 171.014C332.107 171.892 330.932 172.394 329.7 172.41Z" fill="#3987AF"/>
<path d="M334.94 66.12H331.21V22.86C331.163 21.1359 330.434 19.5007 329.184 18.3125C327.934 17.1242 326.264 16.4797 324.54 16.52H324.3L314.61 15.35C312.928 15.3454 311.309 15.9892 310.089 17.1476C308.869 18.306 308.142 19.8898 308.06 21.57L307.23 62.93L303.5 62.86L304.33 21.51C304.46 18.8592 305.617 16.3633 307.557 14.5522C309.497 12.7411 312.067 11.7574 314.72 11.81H315L324.7 12.98C327.368 12.9449 329.943 13.9619 331.867 15.811C333.791 17.6601 334.909 20.1925 334.98 22.86L334.94 66.12Z" fill="#3987AF"/>
<path d="M333.12 102.57V102.27C333.178 100.121 334.082 98.0811 335.637 96.5958C337.192 95.1105 339.27 94.2997 341.42 94.34L350.08 94.54C352.229 94.5951 354.269 95.4993 355.754 97.0548C357.238 98.6103 358.046 100.69 358 102.84V103.14" stroke="#802801" stroke-width="4" stroke-miterlimit="10"/>
<path d="M376.47 164.52H373.78L373.64 131.72H377.05C377.566 131.728 378.075 131.838 378.549 132.043C379.022 132.249 379.45 132.546 379.808 132.918C380.166 133.29 380.447 133.729 380.634 134.21C380.822 134.691 380.912 135.204 380.9 135.72L380.46 160.46C380.468 160.989 380.371 161.515 380.174 162.007C379.977 162.498 379.685 162.946 379.313 163.324C378.942 163.701 378.5 164.002 378.012 164.207C377.524 164.412 377 164.519 376.47 164.52Z" fill="#802801"/>
<path d="M374.37 123.89H378.84C379.271 123.898 379.696 123.991 380.091 124.165C380.486 124.339 380.842 124.589 381.139 124.902C381.436 125.214 381.667 125.583 381.82 125.986C381.973 126.389 382.045 126.819 382.03 127.25L381.9 134.14C381.895 135.017 381.547 135.858 380.93 136.482C380.314 137.106 379.477 137.464 378.6 137.48C378.006 137.468 377.421 137.339 376.878 137.099C376.335 136.859 375.845 136.514 375.437 136.083C375.028 135.653 374.709 135.145 374.499 134.59C374.288 134.035 374.19 133.443 374.21 132.85L374.37 123.89Z" fill="#802801"/>
<path d="M312.64 165.28H315.28L316.44 132.46H313.81C311.64 132.46 311.32 134.27 311.29 136.46L308.78 161.21C308.759 161.733 308.842 162.254 309.026 162.744C309.21 163.234 309.49 163.681 309.85 164.061C310.21 164.44 310.642 164.744 311.121 164.953C311.601 165.163 312.117 165.274 312.64 165.28Z" fill="#802801"/>
<path d="M316.44 124.66H312C310.22 124.66 310.21 126.15 310.19 127.98L310.1 134.98C310.1 136.81 310.04 138.3 311.82 138.29C313.019 138.269 314.162 137.779 315.003 136.924C315.845 136.07 316.318 134.919 316.32 133.72L316.44 124.66Z" fill="#802801"/>
<path d="M364.9 180.72H323.16C321.98 180.728 320.811 180.5 319.721 180.05C318.631 179.599 317.642 178.935 316.813 178.096C315.983 177.257 315.33 176.261 314.892 175.166C314.453 174.071 314.239 172.899 314.26 171.72L316.59 106.95C316.66 102.01 320.75 97.3 325.74 97.3L365.3 97.98C366.48 97.9718 367.65 98.1997 368.74 98.6502C369.831 99.1008 370.82 99.7649 371.651 100.603C372.481 101.442 373.135 102.438 373.574 103.533C374.014 104.628 374.23 105.8 374.21 106.98L374.05 171.05C374 176.04 369.89 180.72 364.9 180.72Z" fill="#AD3509"/>
<path d="M365.5 136.33H324.5C319.91 136.33 315.5 131.95 315.58 127.39L316.58 106.31C316.64 101.76 320.41 97.37 325 97.37L366 98.05C367.082 98.0419 368.156 98.2499 369.157 98.6616C370.158 99.0734 371.067 99.6807 371.83 100.448C372.594 101.215 373.197 102.127 373.604 103.13C374.011 104.133 374.213 105.208 374.2 106.29L374.63 127.35C374.583 129.743 373.601 132.022 371.895 133.701C370.189 135.379 367.893 136.323 365.5 136.33Z" fill="#D83F12"/>
<path d="M331.45 127.03H324.12L323.92 146.74C323.92 147.83 324.35 148.74 324.92 148.74H330.25C330.8 148.74 331.25 147.85 331.25 146.74L331.45 127.03Z" fill="#802801"/>
<path d="M367.45 127.1L360.12 127.15L359.92 146.85C359.92 147.95 360.35 148.85 360.92 148.85H366.25C366.8 148.85 367.25 147.96 367.25 146.85L367.45 127.1Z" fill="#802801"/>
<path d="M32.58 175.21C46.93 175.21 55.95 184.05 55.95 197.16C55.95 210.55 46.64 219.39 31.95 219.39H16.95V238.86H1.23001V175.21H32.58ZM30.78 206.28C36.86 206.28 40.56 202.76 40.56 197.35C40.56 192.22 36.86 188.61 30.78 188.61H16.91V206.28H30.78Z" fill="#265F7B"/>
<path d="M114.47 238.86H99.27V235.06C95.57 238.39 90.63 240.29 84.45 240.29C71.82 240.29 61.17 230.12 61.17 215.02C61.17 199.92 71.82 189.72 84.45 189.72C90.63 189.72 95.57 191.62 99.27 194.94V191.14H114.47V238.86ZM99.27 215.02C99.27 207.7 93.76 202.67 87.59 202.67C80.94 202.67 76.09 207.67 76.09 215.02C76.09 222.37 80.94 227.37 87.59 227.37C93.76 227.37 99.27 222.43 99.27 215.02Z" fill="#265F7B"/>
<path d="M158.74 218.63L172.74 221.63C170.36 232.93 160.29 240.25 148.41 240.25C134.16 240.25 122.41 230.08 122.41 214.98C122.41 199.88 134.19 189.71 148.41 189.71C160.01 189.71 170.08 196.83 172.74 208.04L158.49 211.46C157.16 205.67 153.26 203.01 148.41 203.01C141.58 203.01 137.01 208.01 137.01 215.01C137.01 222.01 141.58 227.01 148.41 227.01C153.23 226.99 157.13 224.42 158.74 218.63Z" fill="#265F7B"/>
<path d="M214 238.86L198.54 221.72H195.79V238.91H180.59V170.51H195.79V207.51H197.88L213 191.17H231.34L210.44 213.88L233.52 238.88L214 238.86Z" fill="#265F7B"/>
<path d="M255.92 177.11C255.92 181.96 252.22 185.57 247.09 185.57C241.96 185.57 238.35 181.96 238.35 177.11C238.427 174.831 239.386 172.672 241.025 171.087C242.664 169.502 244.855 168.616 247.135 168.616C249.415 168.616 251.606 169.502 253.245 171.087C254.884 172.672 255.843 174.831 255.92 177.11ZM239.49 238.86V191.17H254.69V238.86H239.49Z" fill="#265F7B"/>
<path d="M314.82 209.6V238.86H299.72V212.86C299.72 207.26 296.39 203.46 291.55 203.46C285.55 203.46 281.67 207.54 281.67 216.76V238.89H266.47V191.17H281.67V195.72C283.56 193.761 285.836 192.216 288.355 191.183C290.873 190.151 293.579 189.652 296.3 189.72C307.41 189.72 314.82 197.63 314.82 209.6Z" fill="#265F7B"/>
<path d="M374.29 234.11C374.29 248.84 363.08 256.91 347.6 256.91C336.67 256.91 328.31 253.11 323.66 245.42L336.29 238.58C339.9 242.85 342.56 244.47 347.5 244.47C354.44 244.47 359.38 240.38 359.38 232.88V231.55C355.96 234.49 351.21 236.11 345.03 236.11C338.878 236.114 332.977 233.674 328.624 229.327C324.272 224.98 321.824 219.082 321.82 212.93C321.816 206.778 324.256 200.877 328.603 196.524C332.95 192.172 338.848 189.724 345 189.72C351.18 189.72 355.93 191.33 359.35 194.28V191.14H374.26L374.29 234.11ZM359.38 212.72C359.389 211.271 359.105 209.834 358.546 208.497C357.986 207.16 357.163 205.95 356.124 204.939C355.086 203.928 353.854 203.136 352.503 202.612C351.152 202.089 349.709 201.843 348.26 201.89C341.61 201.89 336.86 206.35 336.86 212.72C336.86 219.09 341.61 223.64 348.26 223.64C349.713 223.676 351.159 223.42 352.511 222.887C353.864 222.353 355.095 221.553 356.132 220.535C357.17 219.516 357.992 218.3 358.55 216.957C359.107 215.615 359.39 214.174 359.38 212.72Z" fill="#265F7B"/>
<path d="M53.31 92.52L37.92 95.66C36.77 89.72 31.84 86.72 26.8 86.72C21.57 86.72 18.25 89.57 18.25 93.18C18.25 95.74 19.39 97.64 23.38 98.5L36.59 101.44C47.59 103.91 54.07 109.9 54.07 119.97C54.07 133.55 42 140.58 27.85 140.58C13.5 140.59 1.72 133.72 0 121.31L16.15 118.17C17.76 124.73 22.33 127.58 28.69 127.58C34.58 127.58 38.1 124.92 38.1 121.02C38.1 118.17 36.76 116.37 32.21 115.42L18.91 112.57C9.79 110.48 1.81 105.73 1.81 94.14C1.81 81.79 12.06 74.14 26.98 74.14C40.86 74.09 50.93 80.93 53.31 92.52Z" fill="#E03F13"/>
<path d="M111.35 109.91V139.17H96.24V113.17C96.24 107.56 92.92 103.76 88.07 103.76C82.07 103.76 78.19 107.85 78.19 117.06V139.2H63V91.48H78.2V96.04C80.0911 94.0826 82.3677 92.5388 84.8859 91.506C87.4041 90.4733 90.1091 89.9741 92.83 90.04C103.94 90.05 111.35 97.94 111.35 109.91Z" fill="#E03F13"/>
<path d="M171.86 139.17H156.66V135.37C152.96 138.69 148.02 140.59 141.84 140.59C129.21 140.59 118.57 130.43 118.57 115.32C118.57 100.21 129.21 90.05 141.84 90.05C148.02 90.05 152.96 91.95 156.66 95.28V91.48H171.86V139.17ZM156.66 115.32C156.66 108.01 151.15 102.97 144.98 102.97C138.33 102.97 133.48 107.97 133.48 115.32C133.48 122.67 138.33 127.72 145 127.72C151.15 127.72 156.66 122.72 156.66 115.32Z" fill="#E03F13"/>
<path d="M236.18 115.32C236.18 130.43 225.54 140.59 212.9 140.59C206.73 140.59 201.79 138.69 198.08 135.37V155.32H182.88V91.48H198.08V95.28C201.79 91.95 206.73 90.05 212.9 90.05C225.54 90.05 236.18 100.31 236.18 115.32ZM221.26 115.32C221.26 108.01 216.42 102.97 209.77 102.97C203.59 102.97 198.08 107.97 198.08 115.32C198.08 122.67 203.59 127.72 209.77 127.72C216.42 127.72 221.26 122.72 221.26 115.32Z" fill="#E03F13"/>
</svg>
